<svg xmlns="http://www.w3.org/2000/svg" xmlns:xlink="http://www.w3.org/1999/xlink" width="24" height="24" viewBox="0 0 24 24">
  <defs>
    <clipPath id="clip-path">
      <rect id="Rectangle_9834" data-name="Rectangle 9834" width="24" height="24" fill="#7e8299" stroke="#707070" stroke-width="1"/>
    </clipPath>
  </defs>
  <g id="Mask_Group_1265" data-name="Mask Group 1265" transform="translate(24 0) rotate(90)" clip-path="url(#clip-path)">
    <g id="box-2" transform="translate(1.24 0)">
      <path id="Path_55476" data-name="Path 55476" d="M13.388,25.381a.982.982,0,0,1-.19-.022.747.747,0,0,1-.2-.078l-2.466-1.227a.841.841,0,0,1,.747-1.506l1.272.636v-1.74a.837.837,0,1,1,1.673,0v1.74l1.272-.636a.851.851,0,0,1,1.127.379.832.832,0,0,1-.379,1.127L13.778,25.28a1.49,1.49,0,0,1-.2.078A1.1,1.1,0,0,1,13.388,25.381Zm7.441-3.715a.84.84,0,0,1-.747-.457.831.831,0,0,1,.379-1.127l2.019-1V16.5a.837.837,0,0,1,1.673,0v3.1a.848.848,0,0,1-.457.747l-2.477,1.238a1.345,1.345,0,0,1-.39.078Zm-14.883,0a.852.852,0,0,1-.368-.089L3.1,20.338a.848.848,0,0,1-.457-.747v-3.1a.837.837,0,1,1,1.673,0v2.577l2.019,1A.851.851,0,0,1,6.716,21.2.9.9,0,0,1,5.946,21.666Zm7.441-5.578a.843.843,0,0,1-.837-.837V12.674l-2.019-1a.841.841,0,0,1,.747-1.506l2.109,1.049L15.5,10.163a.841.841,0,0,1,1.127.379.829.829,0,0,1-.379,1.127l-2.019,1v2.577a.843.843,0,0,1-.837.837Zm9.918-4.965a.843.843,0,0,1-.837-.837V8.546L21.2,9.182a.841.841,0,1,1-.747-1.506l.982-.491-.982-.491A.841.841,0,0,1,21.2,5.188l2.466,1.227a.28.28,0,0,1,.078.045.728.728,0,0,1,.178.145l.1.134a.947.947,0,0,1,.1.245,1.242,1.242,0,0,1,.022.19v3.09a.841.841,0,0,1-.837.859Zm-19.836,0a.843.843,0,0,1-.837-.837V7.2a.983.983,0,0,1,.022-.19.947.947,0,0,1,.1-.245.716.716,0,0,1,.112-.145.842.842,0,0,1,.156-.123c.022-.011.056-.033.078-.045L5.567,5.221A.841.841,0,0,1,6.694,5.6a.829.829,0,0,1-.379,1.127l-.982.491.982.491a.841.841,0,1,1-.747,1.506L4.3,8.579v1.74a.805.805,0,0,1-.826.8ZM15.864,4.306a.852.852,0,0,1-.368-.089L13.388,3.168,11.279,4.217a.841.841,0,1,1-.747-1.506l2.477-1.238a.8.8,0,0,1,.747,0l2.477,1.238a.851.851,0,0,1,.379,1.127.818.818,0,0,1-.747.469Z" transform="translate(-2.633 -1.381)" fill="#7e8299"/>
    </g>
  </g>
</svg>
