<svg xmlns="http://www.w3.org/2000/svg" xmlns:xlink="http://www.w3.org/1999/xlink" width="32" height="32" viewBox="0 0 32 32">
  <defs>
    <clipPath id="clip-path">
      <rect id="Rectangle_9384" data-name="Rectangle 9384" width="32" height="32" fill="#fff" stroke="#707070" stroke-width="1"/>
    </clipPath>
  </defs>
  <g id="Mask_Group_1213" data-name="Mask Group 1213" clip-path="url(#clip-path)">
    <g id="java" transform="translate(3.7)">
      <path id="Path_55094" data-name="Path 55094" d="M17.359,19.556a10.1,10.1,0,0,1,1.462-.781s-2.419.437-4.825.637a43.955,43.955,0,0,1-7.694.081c-3.756-.5,2.062-1.881,2.062-1.881A11.069,11.069,0,0,0,3.327,18.8C.046,20.387,11.452,21.112,17.359,19.556ZM12.021,17.55c-1.187-2.669-5.194-5.012,0-9.112C18.5,3.325,15.177,0,15.177,0c1.344,5.281-4.725,6.881-6.919,10.162C6.765,12.406,8.99,14.812,12.021,17.55ZM19.183,6.537c.006,0-10.95,2.737-5.719,8.762,1.544,1.775-.406,3.375-.406,3.375s3.919-2.025,2.119-4.556C13.5,11.756,12.209,10.581,19.183,6.537ZM18.8,23.443a.762.762,0,0,1-.125.162c8.019-2.106,5.069-7.431,1.237-6.081a1.083,1.083,0,0,0-.512.394,4.4,4.4,0,0,1,.687-.187c1.937-.406,4.719,2.594-1.287,5.712Zm2.947,3.894s.906.744-.994,1.325c-3.619,1.094-15.05,1.425-18.225.044-1.144-.494,1-1.187,1.675-1.331a4.534,4.534,0,0,1,1.106-.125c-1.269-.894-8.206,1.756-3.525,2.512C14.552,31.837,25.062,28.831,21.75,27.337ZM7.777,24.75c-4.919,1.375,2.994,4.212,9.256,1.531a11.618,11.618,0,0,1-1.762-.862,18.29,18.29,0,0,1-6.625.281c-2.094-.237-.869-.95-.869-.95Zm11.237,6.075a47.373,47.373,0,0,1-14.581.225c0-.006.737.606,4.525.85,5.762.369,14.612-.206,14.819-2.931,0,0-.4,1.031-4.762,1.856ZM16.29,22.062a25.819,25.819,0,0,1-8.55.412c-2.094-.219-.725-1.231-.725-1.231-5.425,1.8,3.012,3.837,10.594,1.619a3.773,3.773,0,0,1-1.319-.8Z" transform="translate(-0.185)" fill="#fff"/>
    </g>
  </g>
</svg>
