<svg xmlns="http://www.w3.org/2000/svg" xmlns:xlink="http://www.w3.org/1999/xlink" width="32" height="32" viewBox="0 0 32 32">
  <defs>
    <clipPath id="clip-path">
      <rect id="Rectangle_9280" data-name="Rectangle 9280" width="32" height="32" transform="translate(187 1176)" fill="#fff" stroke="#707070" stroke-width="1"/>
    </clipPath>
  </defs>
  <g id="Mask_Group_1121" data-name="Mask Group 1121" transform="translate(-187 -1176)" clip-path="url(#clip-path)">
    <g id="Layer_2" transform="translate(186.874 1176.401)">
      <g id="Group_18027" data-name="Group 18027">
        <path id="Path_54110" data-name="Path 54110" d="M6.532,13.074a2.69,2.69,0,0,1,2,.553,2.191,2.191,0,0,1,.238,1.9,3.181,3.181,0,0,1-1.051,2,3.861,3.861,0,0,1-2.369.6h-1.6l.982-5.051ZM.126,23.239H2.756l.624-3.209H5.631a8.063,8.063,0,0,0,2.453-.313,4.645,4.645,0,0,0,1.75-1.05,5.245,5.245,0,0,0,1.651-2.957,3.758,3.758,0,0,0-.629-3.344,4.2,4.2,0,0,0-3.328-1.2H2.472Z" fill="#fff"/>
        <path id="Path_54111" data-name="Path 54111" d="M13.416,7.96h2.609L15.4,11.169h2.324a4.525,4.525,0,0,1,3.026.765,2.531,2.531,0,0,1,.5,2.479L20.159,20.03h-2.65l1.038-5.34a1.449,1.449,0,0,0-.13-1.243,1.833,1.833,0,0,0-1.309-.332H15.023L13.679,20.03H11.07Z" fill="#fff"/>
        <path id="Path_54112" data-name="Path 54112" d="M27.054,13.074a2.69,2.69,0,0,1,2,.553,2.191,2.191,0,0,1,.238,1.9,3.181,3.181,0,0,1-1.051,2,3.861,3.861,0,0,1-2.369.6h-1.6l.982-5.051ZM20.648,23.239h2.629L23.9,20.03h2.252a8.064,8.064,0,0,0,2.453-.313,4.646,4.646,0,0,0,1.75-1.05,5.244,5.244,0,0,0,1.651-2.957,3.758,3.758,0,0,0-.629-3.344,4.2,4.2,0,0,0-3.328-1.2H22.994Z" fill="#fff"/>
      </g>
    </g>
  </g>
</svg>
