<svg xmlns="http://www.w3.org/2000/svg" xmlns:xlink="http://www.w3.org/1999/xlink" width="32" height="32" viewBox="0 0 32 32">
  <defs>
    <clipPath id="clip-path">
      <rect id="Rectangle_9279" data-name="Rectangle 9279" width="32" height="32" transform="translate(126 1176)" fill="#fff" stroke="#707070" stroke-width="1"/>
    </clipPath>
  </defs>
  <g id="Mask_Group_1120" data-name="Mask Group 1120" transform="translate(-126 -1176)" clip-path="url(#clip-path)">
    <g id="Layer_7" transform="translate(125.793 1175.888)">
      <g id="Group_18026" data-name="Group 18026">
        <path id="path1948_1_" d="M16.018.113A21.8,21.8,0,0,0,12.37.424C9.14.995,8.553,2.189,8.553,4.392V7.3h7.634v.97H5.688a4.766,4.766,0,0,0-4.769,3.87,14.268,14.268,0,0,0,0,7.759c.543,2.26,1.838,3.87,4.057,3.87H7.6V20.283a4.852,4.852,0,0,1,4.769-4.742H20a3.846,3.846,0,0,0,3.817-3.879V4.392A4.262,4.262,0,0,0,20,.424,23.785,23.785,0,0,0,16.018.113ZM11.89,2.453a1.455,1.455,0,1,1-1.433,1.459A1.449,1.449,0,0,1,11.89,2.453Z" fill="#fff"/>
        <path id="path1950_1_" d="M24.765,8.272v3.39A4.9,4.9,0,0,1,20,16.5H12.37a3.894,3.894,0,0,0-3.817,3.879v7.27c0,2.069,1.8,3.286,3.817,3.879a12.769,12.769,0,0,0,7.625,0c1.922-.556,3.817-1.676,3.817-3.879v-2.91H16.187v-.97H27.629c2.219,0,3.046-1.547,3.817-3.87a13.1,13.1,0,0,0,0-7.759c-.548-2.208-1.6-3.87-3.817-3.87H24.765ZM20.476,26.681a1.455,1.455,0,1,1-1.432,1.45A1.441,1.441,0,0,1,20.476,26.681Z" fill="#fff"/>
      </g>
    </g>
  </g>
</svg>
