<svg xmlns="http://www.w3.org/2000/svg" xmlns:xlink="http://www.w3.org/1999/xlink" width="24" height="24" viewBox="0 0 24 24">
  <defs>
    <clipPath id="clip-path">
      <rect id="Rectangle_9227" data-name="Rectangle 9227" width="24" height="24" transform="translate(34 12) rotate(90)" fill="#7e8299" stroke="#707070" stroke-width="1"/>
    </clipPath>
  </defs>
  <g id="Mask_Group_1264" data-name="Mask Group 1264" transform="translate(-12 34) rotate(-90)" clip-path="url(#clip-path)">
    <g id="personalcard" transform="translate(35.396 10.605) rotate(90)">
      <path id="Path_55470" data-name="Path 55470" d="M18.977,24.279H7.814c-4.923,0-6.419-1.5-6.419-6.419V8.93c0-4.923,1.5-6.419,6.419-6.419H18.977c4.923,0,6.419,1.5,6.419,6.419v8.93C25.4,22.783,23.9,24.279,18.977,24.279ZM7.814,4.186c-4,0-4.744.759-4.744,4.744v8.93c0,3.985.748,4.744,4.744,4.744H18.977c4,0,4.744-.759,4.744-4.744V8.93c0-3.985-.748-4.744-4.744-4.744Z" fill="#7e8299"/>
      <path id="Path_55471" data-name="Path 55471" d="M21.209,9.767H15.628a.837.837,0,0,1,0-1.674h5.581a.837.837,0,1,1,0,1.674Z" fill="#7e8299"/>
      <path id="Path_55472" data-name="Path 55472" d="M21.209,14.233H16.744a.837.837,0,1,1,0-1.674h4.465a.837.837,0,1,1,0,1.674Z" fill="#7e8299"/>
      <path id="Path_55473" data-name="Path 55473" d="M21.209,18.7H18.977a.837.837,0,0,1,0-1.674H21.21a.837.837,0,1,1,0,1.674Z" fill="#7e8299"/>
      <path id="Path_55474" data-name="Path 55474" d="M9.488,13.44a2.858,2.858,0,1,1,2.858-2.858A2.858,2.858,0,0,1,9.488,13.44Zm0-4.041a1.183,1.183,0,1,0,1.183,1.183A1.183,1.183,0,0,0,9.488,9.4Z" fill="#7e8299"/>
      <path id="Path_55475" data-name="Path 55475" d="M13.4,19.066a.845.845,0,0,1-.837-.759,2.569,2.569,0,0,0-2.311-2.288,8.874,8.874,0,0,0-1.54,0A2.559,2.559,0,0,0,6.4,18.307a.836.836,0,0,1-1.663-.167,4.216,4.216,0,0,1,3.818-3.784,10.274,10.274,0,0,1,1.853,0,4.246,4.246,0,0,1,3.818,3.784.837.837,0,0,1-.748.915A.19.19,0,0,1,13.4,19.066Z" fill="#7e8299"/>
    </g>
  </g>
</svg>
