<svg xmlns="http://www.w3.org/2000/svg" width="178.402" height="206.001" viewBox="0 0 178.402 206.001">
  <g id="Group_18277" data-name="Group 18277" transform="translate(-1588.053 -1466.089)">
    <path id="Path_53764" data-name="Path 53764" d="M693,197l17.321,10v20L693,237l-17.321-10V207Zm16.321,10.578L693,198.154l-16.321,9.423v18.845L693,235.846l16.321-9.423Z" transform="translate(984.254 1352.09)" fill="#a0a0a0"/>
    <path id="Path_53765" data-name="Path 53765" d="M693,215l1.732,1v2L693,219l-1.732-1v-2Zm.732,1.578-.732-.423-.732.423v.845l.732.423.732-.423Z" transform="translate(984.254 1352.09)" fill="#a0a0a0"/>
    <path id="Path_53766" data-name="Path 53766" d="M693,114l.25.144L782.2,165.5v103l-.25.144L693,320l-89.2-51.5v-103l.25-.144Zm88.2,52.078L693,115.154l-88.2,50.923V267.922L693,318.846l88.2-50.923Z" transform="translate(984.254 1352.09)" fill="#a0a0a0"/>
    <path id="Path_53767" data-name="Path 53767" d="M693,156l52.828,30.5v61L693,278l-52.828-30.5v-61Zm51.828,31.078L693,157.154l-51.828,29.923v59.845L693,276.846l51.828-29.923Z" transform="translate(984.254 1352.09)" fill="#a0a0a0"/>
    <path id="Path_53768" data-name="Path 53768" d="M693,178l33.775,19.5v39L693,256l-33.775-19.5v-39Zm32.775,20.078L693,179.154l-32.775,18.923v37.845L693,254.846l32.775-18.923Z" transform="translate(984.254 1352.09)" fill="#a0a0a0"/>
    <path id="Path_53771" data-name="Path 53771" d="M693,133l72.746,42v84l-.25.144L693,301l-72.746-42V175Zm71.746,42.578L693,134.154l-71.746,41.423v82.845L693,299.846l71.746-41.423Z" transform="translate(984.254 1352.09)" fill="#a0a0a0"/>
  </g>
</svg>
