<svg id="vuesax_linear_teacher" data-name="vuesax/linear/teacher" xmlns="http://www.w3.org/2000/svg" width="24" height="19" viewBox="0 0 24 19">
  <g id="vuesax_linear_teacher-2" data-name="vuesax/linear/teacher">
    <g id="teacher">
      <path id="Vector" d="M7.467.421,1.447,3.532a2.267,2.267,0,0,0,0,4.228l6.02,3.111a4.814,4.814,0,0,0,3.94,0L17.4,7.759a2.266,2.266,0,0,0,0-4.22L11.407.428A4.783,4.783,0,0,0,7.467.421Z" transform="translate(2.583 1.582)" fill="none" stroke="#7e8299" stroke-linecap="round" stroke-linejoin="round" stroke-width="1.5"/>
      <path id="Vector-2" data-name="Vector" d="M.01,0,0,3.713a2.835,2.835,0,0,0,2.18,2.4l3.19.839a4.826,4.826,0,0,0,2.02,0l3.19-.839a2.835,2.835,0,0,0,2.18-2.4V.04" transform="translate(5.62 10.355)" fill="none" stroke="#7e8299" stroke-linecap="round" stroke-linejoin="round" stroke-width="1.5"/>
      <path id="Vector-3" data-name="Vector" d="M0,4.75V0" transform="translate(21.4 7.125)" fill="none" stroke="#7e8299" stroke-linecap="round" stroke-linejoin="round" stroke-width="1.5"/>
      <g id="Vector-4" data-name="Vector" transform="matrix(-1, 0, 0, -1, 24, 19)" fill="none" opacity="0">
        <path d="M0,0H24V19H0Z" stroke="none"/>
        <path d="M 1.5 1.5 L 1.5 17.5 L 22.5 17.5 L 22.5 1.5 L 1.5 1.5 M 0 0 L 24 0 L 24 19 L 0 19 L 0 0 Z" stroke="none" fill="#7e8299"/>
      </g>
    </g>
  </g>
</svg>
