<svg xmlns="http://www.w3.org/2000/svg" xmlns:xlink="http://www.w3.org/1999/xlink" width="278" height="51" viewBox="0 0 278 51">
  <defs>
    <clipPath id="clip-path">
      <rect id="Rectangle_9261" data-name="Rectangle 9261" width="278" height="51" transform="translate(24 13)" fill="#fff" stroke="#707070" stroke-width="1"/>
    </clipPath>
  </defs>
  <g id="Mask_Group_1108" data-name="Mask Group 1108" transform="translate(-24 -13)" clip-path="url(#clip-path)">
    <g id="Mask_Group_888_1" data-name="Mask Group 888 1" transform="translate(146.854 7.571)">
      <g id="Mask_Group_888" data-name="Mask Group 888">
        <g id="Group_14667" data-name="Group 14667">
          <g id="Mask_Group_1" data-name="Mask Group 1">
            <g id="Mask_Group_888_1-2" data-name="Mask Group 888 1" transform="translate(-13.661 3.362)">
              <g id="Mask_Group_888-2" data-name="Mask Group 888" transform="translate(0 5.429)">
                <g id="Group_14667-2" data-name="Group 14667" transform="translate(0 0)">
                  <g id="Mask_Group_1-2" data-name="Mask Group 1">
                    <g id="Group_18160" data-name="Group 18160" transform="translate(0 -0.362)">
                      <path id="Path_66" data-name="Path 66" d="M18.593,17.481c-.28.535-.572.811-.672.811s-.392-.285-.672-.811L9.709,3.271A6.472,6.472,0,0,0,3.92,0H0L12.661,21.891a5.413,5.413,0,0,0,5.1,2.179h.161c1.585,0,3.972,0,5.2-2.181l7.21-12.313s-2.04-3.258-.362-6.305,6.26-3.523,6.26-3.523L31.868,0a6.467,6.467,0,0,0-5.792,3.282Z" transform="translate(0 0.252)" fill="#ff3c46"/>
                      <path id="Path_54090" data-name="Path 54090" d="M106.777,8.27c-.074-.587-6.244-3.646-12.658-1.215s-3.26,8.306-2.936,8.655a12.4,12.4,0,0,0,4.711,3.41c2.316,1.193,5.079,2.469,5.079,3.473a2.53,2.53,0,0,1-1.815,2.257c-2.072.665-10.268-3.068-10.879-3-.812.085-2.285,4.961-2.285,4.961A20.892,20.892,0,0,0,92.9,29.8c4.089,1.042,9.814,1.539,12.206-1.538-.076-.112-1.793-.546-1.915-1.455,0-1.6,1.526-4.311,1.765-4.6a2.36,2.36,0,0,1,1-.685c.57-.164,1.727.462,1.727.462a10.329,10.329,0,0,0-2.379-3.031c-2.937-2.306-8.257-3.7-8.8-5.722s1.808-1.7,1.808-1.7l6.654,1.016a24.073,24.073,0,0,0,1.808-4.275Z" transform="translate(-59.814 -5.875)" fill="#ff3c46"/>
                      <path id="Path_54093" data-name="Path 54093" d="M106.778,8.27c-.074-.587-6.244-3.646-12.658-1.215s-3.26,8.306-2.936,8.655A12.4,12.4,0,0,0,95.9,19.12c2.316,1.193,5.079,2.469,5.079,3.473a2.53,2.53,0,0,1-1.815,2.257c-2.072.665-10.095-2.887-10.706-2.823-.812.085-2.507,4.011-2.2,4.879s4.187,2.322,6.65,2.892C96.992,30.84,102.8,31.081,105.187,28c3.366-4.065,1.936-6.985-.449-9.265s-7.688-3.485-8.23-5.509,1.808-1.7,1.808-1.7l6.654,1.016a24.073,24.073,0,0,0,1.808-4.275Z" transform="translate(-42.175 -5.875)" fill="#ff3c46"/>
                    </g>
                  </g>
                </g>
              </g>
            </g>
          </g>
          <text id="Crm" transform="translate(-122.853 52.177)" font-size="17" font-family="PFBeauSansPro-SemiBold, PF BeauSans Pro" font-weight="600"><tspan x="0" y="0">employee experience management</tspan></text>
        </g>
      </g>
    </g>
  </g>
</svg>
