<svg xmlns="http://www.w3.org/2000/svg" xmlns:xlink="http://www.w3.org/1999/xlink" width="18" height="18" viewBox="0 0 18 18">
  <defs>
    <clipPath id="clip-path">
      <rect id="Rectangle_104" data-name="Rectangle 104" width="18" height="18" transform="translate(234 583)" fill="#7e8299" stroke="#9b9b9b" stroke-width="1"/>
    </clipPath>
  </defs>
  <g id="Mask_Group_53" data-name="Mask Group 53" transform="translate(-234 -583)" clip-path="url(#clip-path)">
    <g id="menu_v2" data-name="menu v2" transform="translate(234.001 583)">
      <path id="Path_203" data-name="Path 203" d="M8.083,9.271h-3.7a2.507,2.507,0,0,0-2.513,2.513v3.7A2.507,2.507,0,0,0,4.381,18h3.7A2.507,2.507,0,0,0,10.6,15.487v-3.7A2.55,2.55,0,0,0,8.083,9.271Zm.883,6.178a.914.914,0,0,1-.917.917H4.381a.913.913,0,0,1-.914-.917V11.785a.914.914,0,0,1,.917-.917h3.7A.914.914,0,0,1,9,11.785V15.45Zm6.555-6.181a4.35,4.35,0,1,0,4.35,4.35,4.35,4.35,0,0,0-4.35-4.35Zm0,7.1a2.735,2.735,0,1,1,1.95-.8,2.751,2.751,0,0,1-1.95.8ZM17.355,0h-3.7a2.507,2.507,0,0,0-2.513,2.513v3.7a2.507,2.507,0,0,0,2.513,2.513h3.7a2.507,2.507,0,0,0,2.513-2.513v-3.7A2.507,2.507,0,0,0,17.355,0Zm.917,6.181a.913.913,0,0,1-.917.917h-3.7a.914.914,0,0,1-.917-.917V2.513a.914.914,0,0,1,.917-.917h3.7a.913.913,0,0,1,.917.917ZM8.083,0h-3.7A2.507,2.507,0,0,0,1.868,2.513v3.7A2.507,2.507,0,0,0,4.381,8.728h3.7A2.507,2.507,0,0,0,10.6,6.215v-3.7A2.55,2.55,0,0,0,8.083,0Zm.883,6.181a.914.914,0,0,1-.917.917H4.381a.913.913,0,0,1-.914-.917V2.513A.914.914,0,0,1,4.381,1.6h3.7A.914.914,0,0,1,9,2.513V6.181Z" transform="translate(-1.868 0)" fill="#7e8299"/>
    </g>
  </g>
</svg>
