<svg xmlns="http://www.w3.org/2000/svg" xmlns:xlink="http://www.w3.org/1999/xlink" width="18" height="18" viewBox="0 0 18 18">
  <defs>
    <clipPath id="clip-path">
      <rect id="Rectangle_9121" data-name="Rectangle 9121" width="18" height="18" fill="#7e8299" stroke="#707070" stroke-width="1"/>
    </clipPath>
  </defs>
  <g id="Mask_Group_1051" data-name="Mask Group 1051" clip-path="url(#clip-path)">
    <g id="export" transform="translate(0.92 0)">
      <g id="Layer_2" data-name="Layer 2">
        <g id="Layer_1" data-name="Layer 1">
          <g id="export-2" data-name="export">
            <path id="Path_53850" data-name="Path 53850" d="M12.958,20.022H3.2A3.2,3.2,0,0,1,0,16.82V11.332a3.2,3.2,0,0,1,3.2-3.2H5.031a.762.762,0,0,1,0,1.524H3.2a1.68,1.68,0,0,0-1.677,1.677V16.82A1.68,1.68,0,0,0,3.2,18.5h9.757a1.68,1.68,0,0,0,1.677-1.677V11.332a1.68,1.68,0,0,0-1.677-1.677H11.129a.762.762,0,1,1,0-1.524h1.829a3.2,3.2,0,0,1,3.2,3.2V16.82a3.2,3.2,0,0,1-3.2,3.2Z" transform="translate(0 -2.022)" fill="#7e8299"/>
            <path id="Path_53851" data-name="Path 53851" d="M10.519,13.72a.762.762,0,0,1-.762-.762V.762a.762.762,0,0,1,1.524,0v12.2A.762.762,0,0,1,10.519,13.72Z" transform="translate(-2.439 0.011)" fill="#7e8299"/>
            <path id="Path_53852" data-name="Path 53852" d="M12.551,4.57a.759.759,0,0,1-.54-.223L9.5,1.826,6.993,4.335A.763.763,0,1,1,5.914,3.256L8.963.207a.768.768,0,0,1,1.079,0l3.049,3.049a.768.768,0,0,1,0,1.079A.759.759,0,0,1,12.551,4.57Z" transform="translate(-1.423 0.015)" fill="#7e8299"/>
          </g>
        </g>
      </g>
    </g>
  </g>
</svg>
