<svg xmlns="http://www.w3.org/2000/svg" xmlns:xlink="http://www.w3.org/1999/xlink" width="24" height="24" viewBox="0 0 24 24">
  <defs>
    <clipPath id="clip-path">
      <rect id="Rectangle_9213" data-name="Rectangle 9213" width="24" height="24" fill="#ffb946" stroke="#707070" stroke-width="1"/>
    </clipPath>
  </defs>
  <g id="Mask_Group_1078" data-name="Mask Group 1078" clip-path="url(#clip-path)">
    <g id="code-1" transform="translate(0 0)">
      <path id="Path_53966" data-name="Path 53966" d="M10.047,19.814a.853.853,0,0,1-.368-.089,5.6,5.6,0,0,1-2.132-1.887,1.973,1.973,0,0,1,0-2.2,5.481,5.481,0,0,1,2.132-1.875.842.842,0,0,1,1.127.38.832.832,0,0,1-.38,1.127,3.842,3.842,0,0,0-1.485,1.317.324.324,0,0,0,0,.346,3.842,3.842,0,0,0,1.485,1.317.851.851,0,0,1,.38,1.127A.9.9,0,0,1,10.047,19.814Z" transform="translate(-1.395 -1.395)" fill="#ffb946"/>
      <path id="Path_53967" data-name="Path 53967" d="M16.979,19.814a.834.834,0,0,1-.368-1.585,3.842,3.842,0,0,0,1.485-1.317.324.324,0,0,0,0-.346,3.842,3.842,0,0,0-1.485-1.317.841.841,0,0,1,.748-1.507,5.6,5.6,0,0,1,2.132,1.887,1.973,1.973,0,0,1,0,2.2A5.481,5.481,0,0,1,17.358,19.7a.737.737,0,0,1-.38.112Z" transform="translate(-1.395 -1.395)" fill="#ffb946"/>
      <path id="Path_53968" data-name="Path 53968" d="M16.744,25.4h-6.7c-6.061,0-8.651-2.59-8.651-8.651v-6.7C1.4,3.985,3.985,1.4,10.047,1.4h6.7c6.061,0,8.651,2.59,8.651,8.651v6.7C25.4,22.806,22.806,25.4,16.744,25.4ZM10.047,3.07C4.9,3.07,3.07,4.9,3.07,10.047v6.7c0,5.146,1.831,6.977,6.977,6.977h6.7c5.146,0,6.977-1.831,6.977-6.977v-6.7c0-5.146-1.831-6.977-6.977-6.977Z" transform="translate(-1.395 -1.395)" fill="#ffb946"/>
      <path id="Path_53969" data-name="Path 53969" d="M2.489,9.779a.837.837,0,1,1,0-1.674l21.455-.011a.837.837,0,0,1,0,1.674L2.489,9.779Z" transform="translate(-1.395 -1.395)" fill="#ffb946"/>
    </g>
  </g>
</svg>
