<svg xmlns="http://www.w3.org/2000/svg" xmlns:xlink="http://www.w3.org/1999/xlink" width="24" height="24" viewBox="0 0 24 24">
  <defs>
    <clipPath id="clip-path">
      <rect id="Rectangle_9011" data-name="Rectangle 9011" width="24" height="24" transform="translate(17 18.5)" fill="#109cf1" stroke="#707070" stroke-width="1"/>
    </clipPath>
  </defs>
  <g id="Mask_Group_1038" data-name="Mask Group 1038" transform="translate(-17 -18.5)" clip-path="url(#clip-path)">
    <g id="Page-1" transform="translate(17 18.5)">
      <g id="_001---Degree" data-name="001---Degree">
        <path id="Shape" d="M23.468,4.047l-11.2-4a.821.821,0,0,0-.546,0l-11.193,4a.8.8,0,0,0,0,1.505L6,7.506V10c0,1.555,5.386,1.6,6,1.6s6-.045,6-1.6V7.506l1.2-.426V8a.8.8,0,0,0,.8.8h.8a.8.8,0,0,0,.8-.8V6.8a1.183,1.183,0,0,0-.13-.532l2-.715a.8.8,0,0,0,0-1.505ZM17.2,9.12A16.6,16.6,0,0,0,12,8.4a16.6,16.6,0,0,0-5.2.72V5.635C7.04,5.327,8.926,4.8,12,4.8s4.96.527,5.2.835ZM12,10.8c-2.96,0-4.819-.489-5.166-.8.348-.311,2.207-.8,5.166-.8s4.819.489,5.166.8C16.819,10.311,14.96,10.8,12,10.8Zm7.388-4.638L18,6.657V5.6C18,4.045,12.614,4,12,4S6,4.045,6,5.6V6.656L.8,4.8,12.006.8,20,3.657V5.674A1.2,1.2,0,0,0,19.388,6.162ZM20.8,8H20V6.8a.4.4,0,0,1,.8,0Zm0-2.342V3.943l2.4.857Z" fill="#109cf1"/>
        <path id="Shape-2" data-name="Shape" d="M22.8,12.4a.391.391,0,0,0-.072.006A66.975,66.975,0,0,1,12,13.2a66.976,66.976,0,0,1-10.728-.794A.451.451,0,0,0,1.2,12.4c-.28,0-1.2.317-1.2,4.4s.92,4.4,1.2,4.4a.455.455,0,0,0,.072-.007,62.56,62.56,0,0,1,8.24-.751l-.781,1.873a.8.8,0,0,0,1.057,1.027l.306-.131.132.3a.8.8,0,0,0,.736.485h.01a.8.8,0,0,0,.733-.5l.695-1.663.692,1.657a.8.8,0,0,0,.736.506h.012a.794.794,0,0,0,.733-.48l.134-.307.3.129a.8.8,0,0,0,1.06-1.032L15.3,20.475a60.99,60.99,0,0,1,7.429.72.391.391,0,0,0,.07.005c.28,0,1.2-.317,1.2-4.4s-.92-4.4-1.2-4.4Zm-9.52,1.588a8.424,8.424,0,0,1,.288,1.871,2.776,2.776,0,0,0-2.784.259,10.806,10.806,0,0,0-.275-2.133Q11.236,14,12,14C12.437,14,12.862,14,13.28,13.988ZM12.4,20.4a2,2,0,1,1,2-2A2,2,0,0,1,12.4,20.4Zm-11.2-7a11.219,11.219,0,0,1,.4,3.4,11.219,11.219,0,0,1-.4,3.4,11.219,11.219,0,0,1-.4-3.4A11.219,11.219,0,0,1,1.2,13.4Zm.808,6.868A11.171,11.171,0,0,0,2.4,16.8a11.164,11.164,0,0,0-.392-3.469,70.182,70.182,0,0,0,7.666.633A10.3,10.3,0,0,1,10,16.8c0,.058,0,.113,0,.169a2.771,2.771,0,0,0-.129,2.621l-.018.042a69.665,69.665,0,0,0-7.843.637ZM10.963,23.2l-.292-.672a.4.4,0,0,0-.524-.208l-.673.3.938-2.249a2.8,2.8,0,0,0,1.413.772Zm3.691-.88a.4.4,0,0,0-.524.208l-.3.665-.858-2.053a2.8,2.8,0,0,0,1.414-.772l.936,2.24Zm8.066-1.94a64.78,64.78,0,0,0-7.76-.72l-.028-.069a2.784,2.784,0,0,0-.539-3.154,11.134,11.134,0,0,0-.286-2.464,66.769,66.769,0,0,0,8.613-.753,9.436,9.436,0,0,1,.48,3.58,9.477,9.477,0,0,1-.48,3.58Z" fill="#109cf1"/>
      </g>
    </g>
  </g>
</svg>
